PathFileType	4	(X/Y/Z)	/Users/itak/Documents/Research/Walk-IL/dataset/trc/00285_00010.trc
DataRate	CameraRate	NumFrames	NumMarkers	Units	OrigDataRate	OrigDataStartFrame	OrigNumFrames
100.000000	100.000000	4	54	mm	100.000000	528	604
Frame#	Time	RPSI			LPSI			L3			STRN			T10			C7			CLAV			RBAK			LBAK			LSHO			LUPA			LAEL			LAOL			LWTS			LWPS			LFRA			LIFD			LHPS			LHTS			RSHO			RUPA			RAEL			RAOL			RWTS			RWPS			RFRA			RHTS			RHPS			RBHD			LFHD			RFHD			LBHD			LHIP			RASI			LASI			LKNE			LTHI			LANK			LTIP			LTOE			LMT1			LMT5			LHEE			RKNE			RTHI			RANK			RTIP			RTOE			RMT1			RMT5			RHEE			RIFD			RHIP			*53			
		X1	Y1	Z1	X2	Y2	Z2	X3	Y3	Z3	X4	Y4	Z4	X5	Y5	Z5	X6	Y6	Z6	X7	Y7	Z7	X8	Y8	Z8	X9	Y9	Z9	X10	Y10	Z10	X11	Y11	Z11	X12	Y12	Z12	X13	Y13	Z13	X14	Y14	Z14	X15	Y15	Z15	X16	Y16	Z16	X17	Y17	Z17	X18	Y18	Z18	X19	Y19	Z19	X20	Y20	Z20	X21	Y21	Z21	X22	Y22	Z22	X23	Y23	Z23	X24	Y24	Z24	X25	Y25	Z25	X26	Y26	Z26	X27	Y27	Z27	X28	Y28	Z28	X29	Y29	Z29	X30	Y30	Z30	X31	Y31	Z31	X32	Y32	Z32	X33	Y33	Z33	X34	Y34	Z34	X35	Y35	Z35	X36	Y36	Z36	X37	Y37	Z37	X38	Y38	Z38	X39	Y39	Z39	X40	Y40	Z40	X41	Y41	Z41	X42	Y42	Z42	X43	Y43	Z43	X44	Y44	Z44	X45	Y45	Z45	X46	Y46	Z46	X47	Y47	Z47	X48	Y48	Z48	X49	Y49	Z49	X50	Y50	Z50	X51	Y51	Z51	X52	Y52	Z52	X53	Y53	Z53	X54	Y54	Z54	

529	5.28	-667.088623046875	999.7117919921875	855.3934326171875	-553.8494873046875	977.5923461914062	723.1650390625	-600.2142333984375	1065.762329101562	797.80810546875	-396.7883911132812	1250.515991210938	952.2273559570312	-612.3348388671875	1186.875122070312	792.9266357421875	-568.7943115234375	1430.898315429688	809.532470703125	-447.1125793457031	1348.846801757812	910.33154296875	-656.93212890625	1293.862426757812	841.0684814453125	-517.9945068359375	1396.250366210938	717.3103637695312	-414.5974731445312	1404.844970703125	733.0928955078125	-391.0959167480469	1299.333251953125	644.4208374023438	-365.7411804199219	1104.314575195312	601.4198608398438	-447.9031372070312	1077.687377929688	618.9254760742188	-277.982666015625	891.4684448242188	662.6520385742188	-283.2095642089844	879.9409790039062	590.6309814453125	-334.1481628417969	1004.14501953125	589.4304809570312	-240.0343627929688	708.7664184570312	660.57275390625	-264.8953857421875	793.639404296875	593.6522827148438	-230.9102020263672	801.3577270507812	650.369384765625	-605.1480712890625	1409.9970703125	977.4912719726562	-645.8975219726562	1357.595581054688	1033.403442382812	-641.06396484375	1126.180053710938	1172.339111328125	-613.46142578125	1083.828979492188	1094.697509765625	-497.3181457519531	955.4116821289062	1291.03271484375	-578.4579467773438	951.3290405273438	1319.013671875	-618.955810546875	1078.833862304688	1222.561279296875	-472.6804504394531	873.3211669921875	1376.796752929688	-542.6754760742188	865.6071166992188	1384.3779296875	-599.026123046875	1581.22314453125	890.0565185546875	-391.7802124023438	1632.3857421875	893.2505493164062	-445.9554748535156	1625.834716796875	968.4326171875	-512.3642578125	1582.277465820312	773.4074096679688	-435.8157348632812	933.081298828125	700.2864379882812	-515.9937744140625	969.5280151367188	1026.014770507812	-365.5090637207031	957.742919921875	825.1599731445312	-288.7513122558594	499.4006042480469	838.8452758789062	-322.7905578613281	633.609619140625	795.7114868164062	-540.3963623046875	174.3126068115234	647.0143432617188	-399.8142700195312	326.3808288574219	740.37255859375	-484.1544494628906	62.4065055847168	815.9906616210938	-553.2391357421875	93.83758544921875	791.7587280273438	-474.284912109375	95.43190002441406	714.9436645507812	-608.693115234375	203.2643127441406	653.9017944335938	-566.9398803710938	494.926025390625	1033.365234375	-591.3745727539062	759.8822631835938	1055.573608398438	-576.447021484375	44.69778442382812	980.96044921875	-544.0306396484375	372.0662231445312	1033.53759765625	-384.8037109375	45.9847412109375	1053.19873046875	-409.7018737792969	47.47270965576172	987.4860229492188	-503.923828125	36.24064254760742	1056.69873046875	-588.3148193359375	44.78486251831055	910.3799438476562	-468.5045166015625	796.4568481445312	1380.974975585938	-652.927734375	962.284912109375	1003.034423828125	nan	nan	nan	
530	5.29	-665.6792602539062	999.28564453125	858.7874755859375	-552.541748046875	976.96044921875	726.4176635742188	-599.3310546875	1065.99072265625	801.3710327148438	-394.9779357910156	1250.574096679688	954.6663818359375	-611.7975463867188	1187.050659179688	796.8485717773438	-567.9031982421875	1430.988159179688	813.500732421875	-445.5036010742188	1348.877563476562	913.0279541015625	-655.791015625	1294.018798828125	846.0078125	-518.1730346679688	1396.333862304688	720.69873046875	-414.537841796875	1404.78466796875	735.4605102539062	-392.3882446289062	1299.330688476562	646.4365234375	-368.770751953125	1104.47998046875	602.9069213867188	-450.6679077148438	1077.77587890625	621.8582153320312	-278.4881286621094	892.7852172851562	662.920166015625	-284.6629333496094	881.2404174804688	591.0363159179688	-336.8598022460938	1004.645446777344	590.4453125	-236.9977874755859	710.8592529296875	659.6321411132812	-264.7370910644531	795.41748046875	593.5174560546875	-229.9049530029297	803.6657104492188	649.5968017578125	-602.2853393554688	1410.381591796875	981.7068481445312	-641.9470825195312	1358.372192382812	1038.533203125	-632.680908203125	1129.096069335938	1180.151977539062	-606.0012817382812	1085.736328125	1102.871948242188	-486.3899230957031	960.872314453125	1299.873168945312	-567.096435546875	957.319580078125	1328.929931640625	-609.6044311523438	1082.751342773438	1230.799682617188	-460.6349792480469	880.0963134765625	1386.648071289062	-530.6298217773438	872.7628173828125	1395.368896484375	-597.4486694335938	1581.026733398438	894.4181518554688	-390.2023010253906	1632.382202148438	896.8167114257812	-444.0291442871094	1625.462158203125	972.226318359375	-511.4194946289062	1582.755249023438	777.35595703125	-434.5287170410156	932.734619140625	703.4052734375	-514.2979736328125	969.8712158203125	1029.196044921875	-364.0045776367188	958.1353149414062	828.0870971679688	-285.3316955566406	500.1398010253906	843.732177734375	-320.3756103515625	633.9017944335938	799.6986083984375	-531.4273681640625	166.5305938720703	658.813720703125	-393.7962951660156	323.0745849609375	748.573486328125	-470.1033630371094	61.64205169677734	830.1696166992188	-540.6251220703125	89.58610534667969	805.7418823242188	-462.6818237304688	91.76985168457031	728.320556640625	-600.7095947265625	193.2708282470703	665.1461181640625	-566.2312622070312	494.6639099121094	1034.969116210938	-589.6041259765625	759.464111328125	1058.054565429688	-576.223388671875	44.81421279907227	980.8448486328125	-543.4392700195312	371.777587890625	1034.5234375	-384.6638793945312	45.74858474731445	1053.12451171875	-409.5973815917969	47.39481353759766	987.4113159179688	-503.8289794921875	36.34213256835938	1056.617065429688	-588.1217651367188	44.83734512329102	910.2273559570312	-456.615234375	803.2576904296875	1391.9599609375	-651.107177734375	962.1350708007812	1006.421142578125	nan	nan	nan	
531	5.3	-664.2129516601562	998.9443359375	862.0894165039062	-551.2288208007812	976.423095703125	729.5997314453125	-598.3485717773438	1066.2724609375	804.8855590820312	-393.2069702148438	1250.591186523438	957.0667114257812	-611.1756591796875	1187.202514648438	800.6670532226562	-566.9527587890625	1431.112182617188	817.276123046875	-443.8847351074219	1348.88134765625	915.6527709960938	-654.6309204101562	1294.214233398438	850.764404296875	-518.22314453125	1396.384155273438	723.9901733398438	-414.36865234375	1404.659912109375	737.7994384765625	-393.5252380371094	1299.181274414062	648.5365600585938	-371.5601196289062	1104.455810546875	604.6852416992188	-453.2141418457031	1077.765747070312	624.9508666992188	-279.2998657226562	893.7096557617188	663.5139770507812	-286.1905212402344	882.2471313476562	591.7498168945312	-339.4467468261719	1004.927429199219	591.7957763671875	-234.5379028320312	712.548583984375	658.802490234375	-264.8301696777344	796.8927612304688	593.5946044921875	-229.3322448730469	805.556884765625	649.1373901367188	-599.4566650390625	1410.813354492188	985.7424926757812	-638.0947875976562	1359.182006835938	1043.38330078125	-624.6951293945312	1131.817260742188	1187.227905273438	-598.6632080078125	1087.60205078125	1110.275512695312	-475.6515502929688	966.4288940429688	1307.933471679688	-555.9654541015625	963.0967407226562	1337.880615234375	-600.6725463867188	1086.409423828125	1238.251953125	-448.6940307617188	887.08349609375	1395.751831054688	-518.6361694335938	879.8800048828125	1405.421020507812	-595.9033203125	1580.818237304688	898.5480346679688	-388.6688232421875	1632.412475585938	900.255859375	-442.1700439453125	1625.1337890625	975.8638916015625	-510.4001770019531	1583.1943359375	781.1256713867188	-433.2715759277344	932.4501953125	706.42236328125	-512.4970703125	970.2273559570312	1032.300537109375	-362.4894714355469	958.4867553710938	830.9107666015625	-282.350830078125	500.7594604492188	848.1953125	-318.1474914550781	634.1013793945312	803.3580932617188	-522.4182739257812	158.716064453125	670.486328125	-388.12109375	319.8323669433594	756.3845825195312	-455.9378662109375	60.7656364440918	843.6912841796875	-527.8115844726562	85.15641021728516	819.3089599609375	-451.0176086425781	88.13457489013672	741.153564453125	-592.6287231445312	183.0814819335938	676.4566650390625	-565.6004028320312	494.4508972167969	1036.512573242188	-587.811279296875	759.1284790039062	1060.492919921875	-576.0712280273438	44.90024185180664	980.7691040039062	-542.9453735351562	371.5237121582031	1035.470581054688	-384.5638732910156	45.58406829833984	1053.062133789062	-409.5359191894531	47.34223175048828	987.3657836914062	-503.7712097167969	36.40737915039062	1056.568725585938	-587.9818115234375	44.88533020019531	910.109375	-444.4957275390625	810.3129272460938	1402.21044921875	-649.2540893554688	962.0608520507812	1009.73095703125	nan	nan	nan	
532	5.31	-662.6920776367188	998.6854858398438	865.3086547851562	-549.9258422851562	975.9830322265625	732.71044921875	-597.2855224609375	1066.5810546875	808.352294921875	-391.4632873535156	1250.577880859375	959.4172973632812	-610.4539184570312	1187.328979492188	804.4112548828125	-565.9356079101562	1431.259643554688	820.8590087890625	-442.2445983886719	1348.869140625	918.2044067382812	-653.4525146484375	1294.43798828125	855.3327026367188	-518.1441040039062	1396.404907226562	727.1749877929688	-414.0932312011719	1404.48193359375	740.096435546875	-394.5004272460938	1298.893676757812	650.7052612304688	-374.1021118164062	1104.255859375	606.729736328125	-455.5140991210938	1077.665893554688	628.2033081054688	-280.3440551757812	894.2489013671875	664.4010620117188	-287.8357238769531	882.9270629882812	592.7335815429688	-341.9127502441406	1004.983947753906	593.4422607421875	-232.7030029296875	713.805419921875	658.1321411132812	-265.2420043945312	798.0201416015625	593.8921508789062	-229.1741027832031	806.9940185546875	648.9653930664062	-596.668701171875	1411.278564453125	989.5999145507812	-634.3704223632812	1359.99951171875	1047.944702148438	-617.1650390625	1134.288696289062	1193.606689453125	-591.4816284179688	1089.388305664062	1116.923828125	-465.1307983398438	972.0548706054688	1315.214965820312	-545.0929565429688	968.5787353515625	1345.885498046875	-592.199951171875	1089.757202148438	1244.96484375	-436.8447265625	894.272705078125	1404.095458984375	-506.6723022460938	886.8826293945312	1414.521850585938	-594.3861083984375	1580.6025390625	902.4575805664062	-387.1773376464844	1632.484985351562	903.5684204101562	-440.3734741210938	1624.851196289062	979.3488159179688	-509.318359375	1583.603759765625	784.7198486328125	-432.0166015625	932.2409057617188	709.3511962890625	-510.6074829101562	970.58447265625	1035.329467773438	-360.9740905761719	958.8010864257812	833.629638671875	-279.7779235839844	501.2760009765625	852.2701416015625	-316.0830688476562	634.2332153320312	806.7228393554688	-513.4476318359375	150.9471435546875	682.013916015625	-382.7841491699219	316.6741943359375	763.81689453125	-441.7464904785156	59.86912536621094	856.58251953125	-514.8468627929688	80.68629455566406	832.4777221679688	-439.304931640625	84.65797424316406	753.4614868164062	-584.5020751953125	172.8388366699219	687.8182983398438	-565.0355834960938	494.2744750976562	1037.985107421875	-586.0028076171875	758.88818359375	1062.933227539062	-575.9800415039062	44.9591178894043	980.7286987304688	-542.5519409179688	371.3025207519531	1036.368286132812	-384.4986572265625	45.4781379699707	1053.014770507812	-409.5064392089844	47.30669784545898	987.3432006835938	-503.7410888671875	36.44196319580078	1056.548217773438	-587.8953247070312	44.93402481079102	910.0254516601562	-432.0788269042969	817.626220703125	1411.69580078125	-647.360595703125	962.0556640625	1012.980590820312	nan	nan	nan	
